<?xml version="1.0" encoding="UTF-8" standalone="no"?>
<!-- Created with Inkscape (http://www.inkscape.org/) -->
<svg
   xmlns:dc="http://purl.org/dc/elements/1.1/"
   xmlns:cc="http://creativecommons.org/ns#"
   xmlns:rdf="http://www.w3.org/1999/02/22-rdf-syntax-ns#"
   xmlns:svg="http://www.w3.org/2000/svg"
   xmlns="http://www.w3.org/2000/svg"
   xmlns:sodipodi="http://sodipodi.sourceforge.net/DTD/sodipodi-0.dtd"
   xmlns:inkscape="http://www.inkscape.org/namespaces/inkscape"
   width="508.74582"
   height="525.81952"
   id="svg2"
   sodipodi:version="0.32"
   inkscape:version="0.46"
   sodipodi:docname="SimpSuppBeamPointLoad.svg"
   inkscape:output_extension="org.inkscape.output.svg.inkscape"
   version="1.0">
  <defs
     id="defs4">
    <marker
       inkscape:stockid="Arrow1Lstart"
       orient="auto"
       refY="0"
       refX="0"
       id="Arrow1Lstart"
       style="overflow:visible">
      <path
         id="path4985"
         d="M 0,0 L 5,-5 L -12.5,0 L 5,5 L 0,0 z"
         style="fill-rule:evenodd;stroke:#000000;stroke-width:1pt;marker-start:none"
         transform="matrix(0.8,0,0,0.8,10,0)" />
    </marker>
    <marker
       inkscape:stockid="Arrow1Lend"
       orient="auto"
       refY="0"
       refX="0"
       id="Arrow1Lend"
       style="overflow:visible">
      <path
         id="path4988"
         d="M 0,0 L 5,-5 L -12.5,0 L 5,5 L 0,0 z"
         style="fill-rule:evenodd;stroke:#000000;stroke-width:1pt;marker-start:none"
         transform="matrix(-0.8,0,0,-0.8,-10,0)" />
    </marker>
    <pattern
       inkscape:stockid="Wavy"
       id="Wavy"
       height="5.1805778"
       width="30.066020"
       patternUnits="userSpaceOnUse"
       inkscape:collect="always"
       patternTransform="translate(-446.45054,0)">
      <path
         id="path4860"
         d="M 7.597,0.061 C 5.079,-0.187 2.656,0.302 -0.01,1.788 L -0.01,3.061 C 2.773,1.431 5.173,1.052 7.472,1.280 C 9.770,1.508 11.969,2.361 14.253,3.218 C 18.820,4.931 23.804,6.676 30.066,3.061 L 30.062,1.788 C 23.622,5.497 19.246,3.770 14.691,2.061 C 12.413,1.207 10.115,0.311 7.597,0.061 z "
         style="fill:black;stroke:none;" />
    </pattern>
    <linearGradient
       id="linearGradient3504">
      <stop
         style="stop-color:#000000;stop-opacity:1;"
         offset="0"
         id="stop3506" />
      <stop
         style="stop-color:#000000;stop-opacity:0;"
         offset="1"
         id="stop3508" />
    </linearGradient>
    <inkscape:perspective
       sodipodi:type="inkscape:persp3d"
       inkscape:vp_x="0 : 526.18109 : 1"
       inkscape:vp_y="0 : 1000 : 0"
       inkscape:vp_z="744.09448 : 526.18109 : 1"
       inkscape:persp3d-origin="372.04724 : 350.78739 : 1"
       id="perspective10" />
    <clipPath
       id="clipPath2566"
       clipPathUnits="userSpaceOnUse">
      <path
         id="path2568"
         d="M 0,3370 L 4480,3370 L 4480,8.33594 L 0,8.33594 L 0,3370 z" />
    </clipPath>
    <clipPath
       id="clipPath2550"
       clipPathUnits="userSpaceOnUse">
      <path
         id="path2552"
         d="M 582.5,3117.5 L 4055,3117.5 L 4055,377.5 L 582.5,377.5 L 582.5,3117.5 z" />
    </clipPath>
    <clipPath
       id="clipPath2536"
       clipPathUnits="userSpaceOnUse">
      <path
         id="path2538"
         d="M 0,3370 L 4480,3370 L 4480,8.33594 L 0,8.33594 L 0,3370 z" />
    </clipPath>
    <clipPath
       id="clipPath2520"
       clipPathUnits="userSpaceOnUse">
      <path
         id="path2522"
         d="M 582.5,3117.5 L 4055,3117.5 L 4055,377.5 L 582.5,377.5 L 582.5,3117.5 z" />
    </clipPath>
    <clipPath
       id="clipPath2506"
       clipPathUnits="userSpaceOnUse">
      <path
         id="path2508"
         d="M 0,3370 L 4480,3370 L 4480,8.33594 L 0,8.33594 L 0,3370 z" />
    </clipPath>
    <clipPath
       id="clipPath2490"
       clipPathUnits="userSpaceOnUse">
      <path
         id="path2492"
         d="M 582.5,3117.5 L 4055,3117.5 L 4055,377.5 L 582.5,377.5 L 582.5,3117.5 z" />
    </clipPath>
    <clipPath
       id="clipPath2476"
       clipPathUnits="userSpaceOnUse">
      <path
         id="path2478"
         d="M 0,3370 L 4480,3370 L 4480,8.33594 L 0,8.33594 L 0,3370 z" />
    </clipPath>
    <clipPath
       id="clipPath2460"
       clipPathUnits="userSpaceOnUse">
      <path
         id="path2462"
         d="M 582.5,3117.5 L 4055,3117.5 L 4055,377.5 L 582.5,377.5 L 582.5,3117.5 z" />
    </clipPath>
    <inkscape:perspective
       id="perspective2450"
       inkscape:persp3d-origin="372.04724 : 350.78739 : 1"
       inkscape:vp_z="744.09448 : 526.18109 : 1"
       inkscape:vp_y="0 : 1000 : 0"
       inkscape:vp_x="0 : 526.18109 : 1"
       sodipodi:type="inkscape:persp3d" />
    <clipPath
       id="clipPath2822"
       clipPathUnits="userSpaceOnUse">
      <path
         id="path2824"
         d="M 1,6 L 1,3520 L 4970,3520 L 4970,6 L 1,6 z" />
    </clipPath>
    <clipPath
       id="clipPath2804"
       clipPathUnits="userSpaceOnUse">
      <path
         id="path2806"
         d="M 469,6 L 469,3506 L 4934,3506 L 4934,6 L 469,6 z" />
    </clipPath>
    <clipPath
       id="clipPath2790"
       clipPathUnits="userSpaceOnUse">
      <path
         id="path2792"
         d="M 1,6 L 1,3520 L 4970,3520 L 4970,6 L 1,6 z" />
    </clipPath>
    <clipPath
       id="clipPath2772"
       clipPathUnits="userSpaceOnUse">
      <path
         id="path2774"
         d="M 469,6 L 469,3506 L 4934,3506 L 4934,6 L 469,6 z" />
    </clipPath>
    <clipPath
       id="clipPath2758"
       clipPathUnits="userSpaceOnUse">
      <path
         id="path2760"
         d="M 1,6 L 1,3520 L 4970,3520 L 4970,6 L 1,6 z" />
    </clipPath>
    <clipPath
       id="clipPath2740"
       clipPathUnits="userSpaceOnUse">
      <path
         id="path2742"
         d="M 469,6 L 469,3506 L 4934,3506 L 4934,6 L 469,6 z" />
    </clipPath>
    <inkscape:perspective
       id="perspective2730"
       inkscape:persp3d-origin="372.04724 : 350.78739 : 1"
       inkscape:vp_z="744.09448 : 526.18109 : 1"
       inkscape:vp_y="0 : 1000 : 0"
       inkscape:vp_x="0 : 526.18109 : 1"
       sodipodi:type="inkscape:persp3d" />
    <clipPath
       id="clipPath3371"
       clipPathUnits="userSpaceOnUse">
      <path
         id="path3373"
         d="M 1,5 L 1,3590 L 4970,3590 L 4970,5 L 1,5 z" />
    </clipPath>
    <clipPath
       id="clipPath3351"
       clipPathUnits="userSpaceOnUse">
      <path
         id="path3353"
         d="M 469,5 L 469,3496 L 4934,3496 L 4934,5 L 469,5 z" />
    </clipPath>
    <clipPath
       id="clipPath3337"
       clipPathUnits="userSpaceOnUse">
      <path
         id="path3339"
         d="M 1,5 L 1,3590 L 4970,3590 L 4970,5 L 1,5 z" />
    </clipPath>
    <clipPath
       id="clipPath3317"
       clipPathUnits="userSpaceOnUse">
      <path
         id="path3319"
         d="M 469,5 L 469,3496 L 4934,3496 L 4934,5 L 469,5 z" />
    </clipPath>
    <clipPath
       id="clipPath3303"
       clipPathUnits="userSpaceOnUse">
      <path
         id="path3305"
         d="M 1,5 L 1,3590 L 4970,3590 L 4970,5 L 1,5 z" />
    </clipPath>
    <clipPath
       id="clipPath3283"
       clipPathUnits="userSpaceOnUse">
      <path
         id="path3285"
         d="M 469,5 L 469,3496 L 4934,3496 L 4934,5 L 469,5 z" />
    </clipPath>
    <inkscape:perspective
       id="perspective3273"
       inkscape:persp3d-origin="372.04724 : 350.78739 : 1"
       inkscape:vp_z="744.09448 : 526.18109 : 1"
       inkscape:vp_y="0 : 1000 : 0"
       inkscape:vp_x="0 : 526.18109 : 1"
       sodipodi:type="inkscape:persp3d" />
  </defs>
  <sodipodi:namedview
     id="base"
     pagecolor="#ffffff"
     bordercolor="#666666"
     borderopacity="1.0"
     gridtolerance="10000"
     guidetolerance="10"
     objecttolerance="10"
     inkscape:pageopacity="0.0"
     inkscape:pageshadow="2"
     inkscape:zoom="1.2989248"
     inkscape:cx="254.37291"
     inkscape:cy="262.90976"
     inkscape:document-units="px"
     inkscape:current-layer="layer1"
     showgrid="true"
     inkscape:window-width="1264"
     inkscape:window-height="888"
     inkscape:window-x="-4"
     inkscape:window-y="-4"
     inkscape:snap-global="false">
    <inkscape:grid
       type="xygrid"
       id="grid3498"
       visible="true"
       enabled="true" />
  </sodipodi:namedview>
  <metadata
     id="metadata7">
    <rdf:RDF>
      <cc:Work
         rdf:about="">
        <dc:format>image/svg+xml</dc:format>
        <dc:type
           rdf:resource="http://purl.org/dc/dcmitype/StillImage" />
      </cc:Work>
    </rdf:RDF>
  </metadata>
  <g
     inkscape:label="Layer 1"
     inkscape:groupmode="layer"
     id="layer1"
     transform="translate(-132.58811,-182.17257)">
    <rect
       style="opacity:0.56730772;fill:#000000;fill-opacity:1;fill-rule:nonzero;stroke:#040000;stroke-width:2.87400007;stroke-linejoin:round;stroke-miterlimit:4;stroke-dasharray:none;stroke-dashoffset:0;stroke-opacity:1"
       id="rect3500"
       width="435"
       height="15"
       x="175"
       y="277.36218" />
    <path
       style="fill:none;fill-rule:evenodd;stroke:#000000;stroke-width:1px;stroke-linecap:butt;stroke-linejoin:miter;stroke-opacity:1"
       d="M 610.5373,292.36218 L 600.5373,312.36218 L 615.5373,312.36218 L 620.5373,312.36218 L 610.5373,292.36218 z"
       id="path4956" />
    <path
       style="fill:#0000ef;fill-opacity:1;fill-rule:evenodd;stroke:#0000f4;stroke-width:1px;stroke-linecap:butt;stroke-linejoin:miter;marker-end:url(#Arrow1Lend);stroke-opacity:1"
       d="M 393.66382,250.91002 L 393.66382,275.91002"
       id="path5770" />
    <path
       style="fill:none;fill-rule:evenodd;stroke:#000000;stroke-width:1px;stroke-linecap:butt;stroke-linejoin:miter;stroke-opacity:1"
       d="M 175.30617,241.67806 L 175.30617,182.67257"
       id="path5784" />
    <path
       style="fill:none;fill-rule:evenodd;stroke:#000000;stroke-width:1px;stroke-linecap:butt;stroke-linejoin:miter;marker-end:url(#Arrow1Lend);stroke-opacity:1"
       d="M 175.30617,211.74773 L 244.57348,212.60289"
       id="path5786" />
    <text
       xml:space="preserve"
       style="font-size:20px;font-style:italic;font-variant:normal;font-weight:normal;font-stretch:normal;text-align:start;line-height:125%;writing-mode:lr-tb;text-anchor:start;fill:#000000;fill-opacity:1;stroke:none;stroke-width:1px;stroke-linecap:butt;stroke-linejoin:miter;stroke-opacity:1;font-family:Arial;-inkscape-font-specification:Arial Italic"
       x="233.4565"
       y="200.63077"
       id="text6303"
       sodipodi:linespacing="125%"><tspan
         sodipodi:role="line"
         id="tspan6305"
         x="233.4565"
         y="200.63077">x</tspan></text>
    <text
       xml:space="preserve"
       style="font-size:20px;font-style:normal;font-variant:normal;font-weight:normal;font-stretch:normal;text-align:start;line-height:125%;writing-mode:lr-tb;text-anchor:start;fill:#000000;fill-opacity:1;stroke:none;stroke-width:1px;stroke-linecap:butt;stroke-linejoin:miter;stroke-opacity:1;font-family:Arial;-inkscape-font-specification:Arial"
       x="153.70181"
       y="284.58463"
       id="text6307"
       sodipodi:linespacing="125%"><tspan
         sodipodi:role="line"
         id="tspan6309"
         x="153.70181"
         y="284.58463"
         style="fill:#008000">A</tspan></text>
    <text
       xml:space="preserve"
       style="font-size:20px;font-style:normal;font-variant:normal;font-weight:normal;font-stretch:normal;text-align:start;line-height:125%;writing-mode:lr-tb;text-anchor:start;fill:#008000;fill-opacity:1;stroke:none;stroke-width:1px;stroke-linecap:butt;stroke-linejoin:miter;stroke-opacity:1;font-family:Arial;-inkscape-font-specification:Arial"
       x="616.76837"
       y="291.10654"
       id="text6311"
       sodipodi:linespacing="125%"><tspan
         sodipodi:role="line"
         id="tspan6313"
         x="616.76837"
         y="291.10654">C</tspan></text>
    <text
       xml:space="preserve"
       style="font-size:20px;font-style:normal;font-variant:normal;font-weight:normal;font-stretch:normal;text-align:start;line-height:125%;writing-mode:lr-tb;text-anchor:start;fill:#008000;fill-opacity:1;stroke:none;stroke-width:1px;stroke-linecap:butt;stroke-linejoin:miter;stroke-opacity:1;font-family:Arial;-inkscape-font-specification:Arial"
       x="394.29251"
       y="310.2608"
       id="text6315"
       sodipodi:linespacing="125%"><tspan
         sodipodi:role="line"
         id="tspan6317"
         x="394.29251"
         y="310.2608">B</tspan></text>
    <text
       xml:space="preserve"
       style="font-size:20px;font-style:normal;font-variant:normal;font-weight:normal;font-stretch:normal;text-align:start;line-height:125%;writing-mode:lr-tb;text-anchor:start;fill:#0000ff;fill-opacity:1;stroke:none;stroke-width:1px;stroke-linecap:butt;stroke-linejoin:miter;stroke-opacity:1;font-family:Arial;-inkscape-font-specification:Arial"
       x="388.66086"
       y="245.27153"
       id="text6319"
       sodipodi:linespacing="125%"><tspan
         sodipodi:role="line"
         id="tspan6321"
         x="388.66086"
         y="245.27153">P</tspan></text>
    <path
       style="fill:none;fill-rule:evenodd;stroke:#000000;stroke-width:0.71807235px;stroke-linecap:butt;stroke-linejoin:miter;marker-start:url(#Arrow1Lstart);marker-end:url(#Arrow1Lend);stroke-opacity:1"
       d="M 175.43824,338.64642 L 392.12402,338.64642"
       id="path6325" />
    <text
       xml:space="preserve"
       style="font-size:20px;font-style:normal;font-variant:normal;font-weight:normal;font-stretch:normal;text-align:start;line-height:125%;writing-mode:lr-tb;text-anchor:start;fill:#000000;fill-opacity:1;stroke:none;stroke-width:1px;stroke-linecap:butt;stroke-linejoin:miter;stroke-opacity:1;font-family:Arial;-inkscape-font-specification:Arial"
       x="289.4444"
       y="329.26984"
       id="text7365"
       sodipodi:linespacing="125%"><tspan
         sodipodi:role="line"
         id="tspan7367"
         x="289.4444"
         y="329.26984">L/2</tspan></text>
    <path
       style="fill:none;fill-rule:evenodd;stroke:#000000;stroke-width:1px;stroke-linecap:butt;stroke-linejoin:miter;stroke-opacity:1"
       d="M 173.06402,328.48088 L 173.06402,349.94056"
       id="path7373" />
    <path
       style="fill:none;fill-rule:evenodd;stroke:#000000;stroke-width:1;stroke-linecap:butt;stroke-linejoin:miter;stroke-miterlimit:4;stroke-dasharray:6, 6;stroke-dashoffset:0;stroke-opacity:1"
       d="M 392.02711,316.55816 L 392.33023,701.31715"
       id="path7377" />
    <g
       id="g2754"
       transform="matrix(9.792937e-2,0,0,-9.589875e-2,145.83363,692.3347)">
      <g
         clip-path="url(#clipPath2758)"
         id="g2756">
        <g
           transform="scale(10,10)"
           id="g2762">
          <text
             id="text2764"
             transform="matrix(1,0,0,-1,2.25039,50.75)">
            <tspan
               id="tspan2766"
               y="0"
               x="0"
               style="font-size:18px;font-variant:normal;font-weight:normal;writing-mode:lr-tb;fill:#000000;fill-opacity:1;fill-rule:nonzero;stroke:none;font-family:Helvetica;-inkscape-font-specification:Helvetica">w</tspan>
          </text>
        </g>
      </g>
    </g>
    <g
       id="g2786"
       transform="matrix(9.792937e-2,0,0,-9.589875e-2,146.82574,694.31892)">
      <g
         clip-path="url(#clipPath2790)"
         id="g2788">
        <g
           transform="scale(10,10)"
           id="g2794">
          <text
             id="text2796"
             transform="matrix(1,0,0,-1,2.25039,162.75)">
            <tspan
               id="tspan2798"
               y="0"
               x="0"
               style="font-size:18px;font-variant:normal;font-weight:normal;writing-mode:lr-tb;fill:#000000;fill-opacity:1;fill-rule:nonzero;stroke:none;font-family:Helvetica;-inkscape-font-specification:Helvetica">Q</tspan>
          </text>
        </g>
      </g>
    </g>
    <g
       id="g2818"
       transform="matrix(9.792937e-2,0,0,-9.589875e-2,146.82574,692.3347)">
      <g
         clip-path="url(#clipPath2822)"
         id="g2820">
        <g
           transform="scale(10,10)"
           id="g2826">
          <text
             id="text2828"
             transform="matrix(1,0,0,-1,2.25039,285.5)">
            <tspan
               id="tspan2830"
               y="0"
               x="0"
               style="font-size:18px;font-variant:normal;font-weight:normal;writing-mode:lr-tb;fill:#000000;fill-opacity:1;fill-rule:nonzero;stroke:none;font-family:Helvetica;-inkscape-font-specification:Helvetica">M</tspan>
          </text>
        </g>
      </g>
    </g>
    <g
       id="g3279"
       transform="matrix(9.73233e-2,0,0,-9.10255e-2,128.98168,687.15124)">
      <g
         clip-path="url(#clipPath3283)"
         id="g3281">
        <path
           id="path3287"
           style="fill:none;stroke:#0000ff;stroke-width:30;stroke-linecap:butt;stroke-linejoin:round;stroke-miterlimit:10;stroke-dasharray:none;stroke-opacity:1"
           d="M 2722.5,37.5 L 2745,37.5 L 2767.5,38.332 L 2790,39.1641 L 2811.67,39.9961 L 2834.17,40.8281 L 2856.67,41.6602 L 2879.17,43.3242 L 2901.67,44.9883 L 2923.33,46.6523 L 2945.83,48.3164 L 2968.33,50.8164 L 2990.83,52.4805 L 3012.5,54.9805 L 3035,57.4805 L 3057.5,59.9805 L 3080,63.3125 L 3102.5,65.8125 L 3124.16,69.1445 L 3146.66,72.4766 L 3169.16,75.8086 L 3191.66,79.9727 L 3213.32,83.3047 L 3235.82,87.4688 L 3258.32,91.6328 L 3280.82,95.7969 L 3303.32,99.9609 L 3324.99,104.125 L 3347.49,109.125 L 3369.99,114.125 L 3392.49,119.125 L 3414.15,124.125 L 3436.65,129.125 L 3459.15,134.125 L 3481.65,139.125 L 3504.15,144.957 L 3525.82,150.789 L 3548.32,156.621 L 3570.82,162.453 L 3593.32,168.285 L 3614.98,174.117 L 3637.48,180.781 L 3659.98,186.613 L 3682.48,193.277 L 3704.98,199.941 L 3726.64,206.605 L 3749.14,213.27 L 3771.64,219.934 L 3794.14,226.598 L 3816.64,234.098 L 3838.31,240.762 L 3860.81,248.262 L 3883.31,255.762 L 3905.81,263.262 L 3927.47,270.762 L 3949.97,278.262 L 3972.47,285.762 L 3994.97,293.262 L 4017.47,301.594 L 4039.14,309.094 L 4061.64,317.426 L 4084.14,324.926 L 4106.64,333.258 L 4128.3,341.59 L 4150.8,349.922 L 4173.3,358.254 L 4195.8,366.586 L 4218.3,374.918 L 4239.96,383.25 L 4262.46,391.582 L 4284.96,400.746 L 4307.46,409.078 L 4329.13,417.41 L 4351.63,426.574 L 4374.13,435.738 L 4396.63,444.07 L 4419.13,453.234 L 4440.79,462.398 L 4463.29,470.73 L 4485.79,479.895 L 4508.29,489.059 L 4529.96,498.223 L 4552.46,507.387 L 4574.96,516.551 L 4597.46,525.715 L 4619.96,534.879 L 4641.62,544.043 L 4664.12,553.207 L 4686.62,563.207 L 4709.12,572.371 L 4730.79,581.535 L 4753.29,590.699 L 4775.79,599.863 L 4798.29,609.863 L 4820.79,619.027 L 4842.45,628.191 L 4864.95,638.191 L 4887.45,647.355 L 4909.95,656.52 L 4932.45,666.52" />
        <path
           id="path3289"
           style="fill:none;stroke:#0000ff;stroke-width:30;stroke-linecap:butt;stroke-linejoin:round;stroke-miterlimit:10;stroke-dasharray:none;stroke-opacity:1"
           d="M 513.336,647.5 L 535.836,638.336 L 558.336,628.336 L 580,619.172 L 602.5,610.008 L 625,600.008 L 647.5,590.844 L 670,581.68 L 691.664,572.516 L 714.164,563.352 L 736.664,553.352 L 759.164,544.188 L 780.828,535.023 L 803.328,525.859 L 825.828,516.695 L 848.328,507.531 L 870.828,498.367 L 892.492,489.203 L 914.992,480.039 L 937.492,470.875 L 959.992,462.543 L 981.656,453.379 L 1004.16,444.215 L 1026.66,435.883 L 1049.16,426.719 L 1071.66,417.555 L 1093.32,409.223 L 1115.82,400.891 L 1138.32,391.727 L 1160.82,383.395 L 1182.48,375.062 L 1204.98,366.73 L 1227.48,358.398 L 1249.98,350.066 L 1272.48,341.734 L 1294.15,333.402 L 1316.65,325.07 L 1339.15,317.57 L 1361.65,309.238 L 1383.31,301.738 L 1405.81,293.406 L 1428.31,285.906 L 1450.81,278.406 L 1473.31,270.906 L 1494.98,263.406 L 1517.48,255.906 L 1539.98,248.406 L 1562.48,240.906 L 1584.98,234.242 L 1606.64,226.742 L 1629.14,220.078 L 1651.64,213.414 L 1674.14,206.75 L 1695.8,200.086 L 1718.3,193.422 L 1740.8,186.758 L 1763.3,180.926 L 1785.8,174.262 L 1807.47,168.43 L 1829.97,162.598 L 1852.47,156.766 L 1874.97,150.934 L 1896.63,145.102 L 1919.13,139.27 L 1941.63,134.27 L 1964.13,129.27 L 1986.63,124.27 L 2008.3,119.27 L 2030.8,114.27 L 2053.3,109.27 L 2075.8,104.27 L 2097.46,100.105 L 2119.96,95.9414 L 2142.46,91.7773 L 2164.96,87.6133 L 2187.46,83.4492 L 2209.12,80.1172 L 2231.62,75.9531 L 2254.12,72.6211 L 2276.62,69.2891 L 2298.29,65.957 L 2320.79,63.457 L 2343.29,60.125 L 2365.79,57.625 L 2388.29,55.125 L 2409.95,52.625 L 2432.45,50.9609 L 2454.95,48.4609 L 2477.45,46.7969 L 2499.12,45.1328 L 2521.62,43.4688 L 2544.12,41.8047 L 2566.62,40.9727 L 2589.12,40.1406 L 2610.78,39.3086 L 2633.28,38.4766 L 2655.78,37.6445 L 2722.45,37.6445" />
        <path
           id="path3291"
           style="fill:none;stroke:#0000ff;stroke-width:30;stroke-linecap:butt;stroke-linejoin:round;stroke-miterlimit:10;stroke-dasharray:none;stroke-opacity:1"
           d="M 469.168,666.668 L 490.832,656.668 L 513.332,647.504" />
        <path
           id="path3293"
           style="fill:none;stroke:#000000;stroke-width:20;stroke-linecap:butt;stroke-linejoin:round;stroke-miterlimit:10;stroke-dasharray:none;stroke-opacity:1"
           d="M 469.168,666.668 L 4932.5,666.668" />
        <path
           id="path3295"
           style="fill:#000000;fill-opacity:1;fill-rule:nonzero;stroke:none"
           d="M 475.836,666.668 C 475.836,665.289 474.715,664.168 473.336,664.168 C 471.957,664.168 470.836,665.289 470.836,666.668 C 470.836,668.047 471.957,669.168 473.336,669.168 C 474.715,669.168 475.836,668.047 475.836,666.668" />
        <path
           id="path3297"
           style="fill:#000000;fill-opacity:1;fill-rule:nonzero;stroke:none"
           d="M 4935,666.668 C 4935,665.289 4933.88,664.168 4932.5,664.168 C 4931.12,664.168 4930,665.289 4930,666.668 C 4930,668.047 4931.12,669.168 4932.5,669.168 C 4933.88,669.168 4935,668.047 4935,666.668" />
      </g>
    </g>
    <g
       id="g3313"
       transform="matrix(9.73233e-2,0,0,-9.10255e-2,128.98168,687.15124)">
      <g
         clip-path="url(#clipPath3317)"
         id="g3315">
        <path
           id="path3321"
           style="fill:none;stroke:#ff0000;stroke-width:30;stroke-linecap:butt;stroke-linejoin:round;stroke-miterlimit:10;stroke-dasharray:none;stroke-opacity:1"
           d="M 2722.5,2615.84 L 4932.45,2615.84" />
        <path
           id="path3323"
           style="fill:none;stroke:#ff0000;stroke-width:30;stroke-linecap:butt;stroke-linejoin:round;stroke-miterlimit:10;stroke-dasharray:none;stroke-opacity:1"
           d="M 513.336,1358.34 L 2678.28,1358.34 L 2700.78,2615.84 L 2722.45,2615.84" />
        <path
           id="path3325"
           style="fill:none;stroke:#ff0000;stroke-width:30;stroke-linecap:butt;stroke-linejoin:round;stroke-miterlimit:10;stroke-dasharray:none;stroke-opacity:1"
           d="M 469.168,1358.34 L 513.332,1358.34" />
        <path
           id="path3327"
           style="fill:none;stroke:#000000;stroke-width:20;stroke-linecap:butt;stroke-linejoin:round;stroke-miterlimit:10;stroke-dasharray:none;stroke-opacity:1"
           d="M 469.168,1986.67 L 4932.5,1986.67" />
        <path
           id="path3329"
           style="fill:none;stroke:#000000;stroke-width:5;stroke-linecap:butt;stroke-linejoin:round;stroke-miterlimit:10;stroke-dasharray:none;stroke-opacity:1"
           d="M 473.336,1986.67 L 473.336,1358.34" />
        <path
           id="path3331"
           style="fill:none;stroke:#000000;stroke-width:5;stroke-linecap:butt;stroke-linejoin:round;stroke-miterlimit:10;stroke-dasharray:none;stroke-opacity:1"
           d="M 4932.5,1986.67 L 4932.5,2615.83" />
      </g>
    </g>
    <g
       id="g3347"
       transform="matrix(9.73233e-2,0,0,-9.10255e-2,128.98168,687.15124)">
      <g
         clip-path="url(#clipPath3351)"
         id="g3349">
        <path
           id="path3355"
           style="fill:none;stroke:#ff00ff;stroke-width:30;stroke-linecap:butt;stroke-linejoin:round;stroke-miterlimit:10;stroke-dasharray:none;stroke-opacity:1"
           d="M 2722.5,2810.84 L 2745,2816.67 L 2767.5,2823.33 L 2790,2830 L 2811.67,2835.83 L 2834.17,2842.49 L 2856.67,2848.32 L 2879.17,2854.99 L 2901.67,2860.82 L 2923.33,2867.48 L 2945.83,2873.32 L 2968.33,2879.98 L 2990.83,2885.81 L 3012.5,2892.48 L 3035,2899.14 L 3057.5,2904.97 L 3080,2911.64 L 3102.5,2917.47 L 3124.16,2924.13 L 3146.66,2929.96 L 3169.16,2936.63 L 3191.66,2942.46 L 3213.32,2949.12 L 3235.82,2955.79 L 3258.32,2961.62 L 3280.82,2968.29 L 3303.32,2974.12 L 3324.99,2980.78 L 3347.49,2986.61 L 3369.99,2993.28 L 3392.49,2999.11 L 3414.15,3005.77 L 3436.65,3011.61 L 3459.15,3018.27 L 3481.65,3024.93 L 3504.15,3030.77 L 3525.82,3037.43 L 3548.32,3043.26 L 3570.82,3049.93 L 3593.32,3055.76 L 3614.98,3062.42 L 3637.48,3068.25 L 3659.98,3074.92 L 3682.48,3080.75 L 3704.98,3087.41 L 3726.64,3094.08 L 3749.14,3099.91 L 3771.64,3106.57 L 3794.14,3112.41 L 3816.64,3119.07 L 3838.31,3124.9 L 3860.81,3131.57 L 3883.31,3137.4 L 3905.81,3144.06 L 3927.47,3149.89 L 3949.97,3156.56 L 3972.47,3163.22 L 3994.97,3169.05 L 4017.47,3175.72 L 4039.14,3181.55 L 4061.64,3188.21 L 4084.14,3194.05 L 4106.64,3200.71 L 4128.3,3206.54 L 4150.8,3213.21 L 4173.3,3219.04 L 4195.8,3225.7 L 4218.3,3232.37 L 4239.96,3238.2 L 4262.46,3244.86 L 4284.96,3250.7 L 4307.46,3257.36 L 4329.13,3263.19 L 4351.63,3269.86 L 4374.13,3275.69 L 4396.63,3282.35 L 4419.13,3288.18 L 4440.79,3294.85 L 4463.29,3301.51 L 4485.79,3307.34 L 4508.29,3314.01 L 4529.96,3319.84 L 4552.46,3326.5 L 4574.96,3332.34 L 4597.46,3339 L 4619.96,3344.83 L 4641.62,3351.5 L 4664.12,3357.33 L 4686.62,3363.99 L 4709.12,3370.66 L 4730.79,3376.49 L 4753.29,3383.15 L 4775.79,3388.98 L 4798.29,3395.65 L 4820.79,3401.48 L 4842.45,3408.14 L 4864.95,3413.98 L 4887.45,3420.64 L 4909.95,3426.47 L 4932.45,3433.14" />
        <path
           id="path3357"
           style="fill:none;stroke:#ff00ff;stroke-width:30;stroke-linecap:butt;stroke-linejoin:round;stroke-miterlimit:10;stroke-dasharray:none;stroke-opacity:1"
           d="M 513.336,3420.84 L 535.836,3414.17 L 558.336,3408.34 L 580,3401.68 L 602.5,3395.84 L 625,3389.18 L 647.5,3383.35 L 670,3376.68 L 691.664,3370.85 L 714.164,3364.19 L 736.664,3357.52 L 759.164,3351.69 L 780.828,3345.03 L 803.328,3339.2 L 825.828,3332.53 L 848.328,3326.7 L 870.828,3320.04 L 892.492,3314.2 L 914.992,3307.54 L 937.492,3301.71 L 959.992,3295.04 L 981.656,3288.38 L 1004.16,3282.55 L 1026.66,3275.88 L 1049.16,3270.05 L 1071.66,3263.39 L 1093.32,3257.55 L 1115.82,3250.89 L 1138.32,3245.06 L 1160.82,3238.39 L 1182.48,3232.56 L 1204.98,3225.9 L 1227.48,3219.23 L 1249.98,3213.4 L 1272.48,3206.74 L 1294.15,3200.91 L 1316.65,3194.24 L 1339.15,3188.41 L 1361.65,3181.75 L 1383.31,3175.91 L 1405.81,3169.25 L 1428.31,3163.42 L 1450.81,3156.75 L 1473.31,3150.09 L 1494.98,3144.26 L 1517.48,3137.59 L 1539.98,3131.76 L 1562.48,3125.1 L 1584.98,3119.27 L 1606.64,3112.6 L 1629.14,3106.77 L 1651.64,3100.11 L 1674.14,3094.27 L 1695.8,3087.61 L 1718.3,3080.95 L 1740.8,3075.11 L 1763.3,3068.45 L 1785.8,3062.62 L 1807.47,3055.95 L 1829.97,3050.12 L 1852.47,3043.46 L 1874.97,3037.62 L 1896.63,3030.96 L 1919.13,3025.13 L 1941.63,3018.46 L 1964.13,3011.8 L 1986.63,3005.97 L 2008.3,2999.3 L 2030.8,2993.47 L 2053.3,2986.81 L 2075.8,2980.98 L 2097.46,2974.31 L 2119.96,2968.48 L 2142.46,2961.82 L 2164.96,2955.98 L 2187.46,2949.32 L 2209.12,2942.66 L 2231.62,2936.82 L 2254.12,2930.16 L 2276.62,2924.33 L 2298.29,2917.66 L 2320.79,2911.83 L 2343.29,2905.17 L 2365.79,2899.34 L 2388.29,2892.67 L 2409.95,2886.01 L 2432.45,2880.18 L 2454.95,2873.51 L 2477.45,2867.68 L 2499.12,2861.02 L 2521.62,2855.18 L 2544.12,2848.52 L 2566.62,2842.69 L 2589.12,2836.02 L 2610.78,2830.19 L 2633.28,2823.53 L 2655.78,2816.86 L 2678.28,2811.03 L 2700.78,2804.37 L 2722.45,2811.03" />
        <path
           id="path3359"
           style="fill:none;stroke:#ff00ff;stroke-width:30;stroke-linecap:butt;stroke-linejoin:round;stroke-miterlimit:10;stroke-dasharray:none;stroke-opacity:1"
           d="M 469.168,3433.34 L 490.832,3426.67 L 513.332,3420.84" />
        <path
           id="path3361"
           style="fill:none;stroke:#000000;stroke-width:20;stroke-linecap:butt;stroke-linejoin:round;stroke-miterlimit:10;stroke-dasharray:none;stroke-opacity:1"
           d="M 469.168,3433.34 L 4932.5,3433.34" />
        <path
           id="path3363"
           style="fill:#000000;fill-opacity:1;fill-rule:nonzero;stroke:none"
           d="M 475.836,3433.34 C 475.836,3431.96 474.715,3430.84 473.336,3430.84 C 471.957,3430.84 470.836,3431.96 470.836,3433.34 C 470.836,3434.71 471.957,3435.84 473.336,3435.84 C 474.715,3435.84 475.836,3434.71 475.836,3433.34" />
        <path
           id="path3365"
           style="fill:#000000;fill-opacity:1;fill-rule:nonzero;stroke:none"
           d="M 4935,3433.34 C 4935,3431.96 4933.88,3430.84 4932.5,3430.84 C 4931.12,3430.84 4930,3431.96 4930,3433.34 C 4930,3434.71 4931.12,3435.84 4932.5,3435.84 C 4933.88,3435.84 4935,3434.71 4935,3433.34" />
      </g>
    </g>
    <g
       id="g3521"
       transform="translate(-435.84306,0.5120405)">
      <rect
         transform="translate(132.58811,182.17257)"
         y="129.96671"
         x="461.33221"
         height="6.9447861"
         width="32.739704"
         id="rect3523"
         style="opacity:0.56730772;fill:#0000ff;fill-opacity:1;fill-rule:nonzero;stroke:#0000f4;stroke-width:1;stroke-linejoin:round;stroke-miterlimit:4;stroke-dasharray:6, 6;stroke-dashoffset:0;stroke-opacity:1" />
    </g>
    <path
       style="fill:none;fill-rule:evenodd;stroke:#000000;stroke-width:1px;stroke-linecap:butt;stroke-linejoin:miter;stroke-opacity:1"
       d="M 174.16095,293.04177 L 164.16095,313.04177 L 179.16095,313.04177 L 184.16095,313.04177 L 174.16095,293.04177 z"
       id="path3525" />
    <path
       sodipodi:type="arc"
       style="opacity:0.56730772;fill:#0000ff;fill-opacity:1;fill-rule:nonzero;stroke:#0000f4;stroke-width:1;stroke-linejoin:round;stroke-miterlimit:4;stroke-dasharray:6, 6;stroke-dashoffset:0;stroke-opacity:1"
       id="path3527"
       sodipodi:cx="476.16306"
       sodipodi:cy="133.18709"
       sodipodi:rx="3.4644039"
       sodipodi:ry="2.3096025"
       d="M 479.62746,133.18709 A 3.4644039,2.3096025 0 1 1 472.69865,133.18709 A 3.4644039,2.3096025 0 1 1 479.62746,133.18709 z"
       transform="translate(129.50864,181.4027)" />
    <path
       sodipodi:type="arc"
       style="opacity:0.56730772;fill:#0000ff;fill-opacity:1;fill-rule:nonzero;stroke:#0000f4;stroke-width:1;stroke-linejoin:round;stroke-miterlimit:4;stroke-dasharray:6, 6;stroke-dashoffset:0;stroke-opacity:1"
       id="path3529"
       sodipodi:cx="488.86588"
       sodipodi:cy="132.41722"
       sodipodi:rx="3.0794702"
       sodipodi:ry="2.3096025"
       d="M 491.94535,132.41722 A 3.0794702,2.3096025 0 1 1 485.78641,132.41722 A 3.0794702,2.3096025 0 1 1 491.94535,132.41722 z"
       transform="translate(127.19904,182.17257)" />
    <g
       id="g3531"
       transform="translate(0.3856662,6.676791)">
      <rect
         transform="translate(132.58811,182.17257)"
         y="129.96671"
         x="461.33221"
         height="6.9447861"
         width="32.739704"
         id="rect3533"
         style="opacity:0.56730772;fill:#0000ff;fill-opacity:1;fill-rule:nonzero;stroke:#0000f4;stroke-width:1;stroke-linejoin:round;stroke-miterlimit:4;stroke-dasharray:6, 6;stroke-dashoffset:0;stroke-opacity:1" />
    </g>
    <path
       style="fill:none;fill-rule:evenodd;stroke:#000000;stroke-width:1.50315988px;stroke-linecap:butt;stroke-linejoin:miter;stroke-opacity:1"
       d="M 611.83063,329.26557 L 611.83063,350.72525"
       id="path3535" />
    <path
       style="fill:none;fill-rule:evenodd;stroke:#000000;stroke-width:1.50315988px;stroke-linecap:butt;stroke-linejoin:miter;stroke-opacity:1"
       d="M 392.80333,327.72583 L 392.80333,349.18551"
       id="path3537" />
    <path
       style="fill:none;fill-rule:evenodd;stroke:#000000;stroke-width:0.71807235px;stroke-linecap:butt;stroke-linejoin:miter;marker-start:url(#Arrow1Lstart);marker-end:url(#Arrow1Lend);stroke-opacity:1"
       d="M 393.78163,338.45568 L 610.46741,338.45568"
       id="path3539" />
    <text
       xml:space="preserve"
       style="font-size:20px;font-style:normal;font-variant:normal;font-weight:normal;font-stretch:normal;text-align:start;line-height:125%;writing-mode:lr-tb;text-anchor:start;fill:#000000;fill-opacity:1;stroke:none;stroke-width:1px;stroke-linecap:butt;stroke-linejoin:miter;stroke-opacity:1;font-family:Arial;-inkscape-font-specification:Arial"
       x="514.19354"
       y="330.21652"
       id="text3541"
       sodipodi:linespacing="125%"><tspan
         sodipodi:role="line"
         id="tspan3543"
         x="514.19354"
         y="330.21652">L/2</tspan></text>
  </g>
</svg>
